<?xml version="1.0" encoding="UTF-8"?>
<svg id="Layer_2" data-name="Layer 2" xmlns="http://www.w3.org/2000/svg" viewBox="0 0 367.12 410.88">
  <defs>
    <style>
      .cls-1 {
        fill: #aaa;
      }
    </style>
  </defs>
  <g id="Layer_1-2" data-name="Layer 1">
    <g>
      <g>
        <path class="cls-1" d="M8.73,344.39c1.23-1.27,3.02-1.91,5.35-1.91h29.75l.32-5.4c-3.32-.21-6.72-.37-10.22-.48-3.49-.11-7.01-.16-10.53-.16h-10.48c-3.88,0-7.01,1.1-9.37,3.28-2.37,2.19-3.55,5.12-3.55,8.79v49.12c0,3.6,1.18,6.51,3.55,8.73,2.36,2.22,5.49,3.34,9.37,3.34,3.46,0,6.95-.02,10.48-.05,3.53-.04,7.04-.09,10.53-.16,3.49-.07,6.9-.21,10.22-.42l-.32-5.29H14.08c-2.33,0-4.11-.65-5.35-1.96-1.24-1.31-1.85-3.19-1.85-5.66v-22.55h32.71v-5.61H6.88v-18c0-2.47.62-4.34,1.85-5.61Z"/>
        <path class="cls-1" d="M93.7,371.18l-15.35-3.18c-3.6-.7-6.18-1.99-7.73-3.86-1.55-1.87-2.33-5.06-2.33-9.58,0-3.18.3-5.65.9-7.41.6-1.76,1.57-3.03,2.91-3.81,1.34-.78,3.05-1.27,5.13-1.48,2.08-.21,4.57-.32,7.46-.32,3.32,0,6.74.07,10.27.21,3.53.14,6.85.32,9.95.53l.53-5.08c-3.53-.63-7.06-1.09-10.59-1.38-3.53-.28-7.02-.46-10.48-.53-3.95,0-7.38.2-10.27.58-2.89.39-5.28,1.22-7.15,2.49-1.87,1.27-3.28,3.19-4.24,5.77-.95,2.58-1.43,6.02-1.43,10.32,0,5.65,1.08,10.08,3.23,13.29,2.15,3.21,5.84,5.35,11.06,6.41l15.56,3.28c2.4.42,4.36,1.11,5.88,2.06,1.52.95,2.61,2.33,3.28,4.13.67,1.8,1.01,4.29,1.01,7.46,0,3.88-.51,6.78-1.53,8.68-1.02,1.91-2.74,3.18-5.13,3.81-2.4.63-5.65.99-9.74,1.06-2.19,0-4.27-.02-6.25-.05-1.98-.03-4.18-.11-6.62-.21-2.44-.11-5.45-.23-9.05-.37l-.53,5.08c4.8.78,9.07,1.27,12.81,1.48,3.74.21,6.88.32,9.42.32,4.02,0,7.52-.25,10.48-.74,2.96-.49,5.42-1.41,7.36-2.75,1.94-1.34,3.4-3.3,4.39-5.88.99-2.58,1.48-6.02,1.48-10.32,0-5.86-1.08-10.38-3.23-13.55-2.15-3.18-5.98-5.33-11.49-6.46Z"/>
        <polygon class="cls-1" points="146.42 336.56 122.18 336.56 122.18 342.7 146.42 342.7 146.42 409.61 153.41 409.61 153.41 342.7 177.76 342.7 177.76 336.56 153.41 336.56 146.42 336.56"/>
        <path class="cls-1" d="M217.51,337.08c-.53-.35-1.11-.53-1.75-.53h-7.94c-.63,0-1.2.18-1.69.53-.49.35-.85.85-1.06,1.48l-24.46,71.04h7.2l8.08-24.24h31.8l8.08,24.24h7.2l-24.46-71.04c-.14-.63-.48-1.13-1.01-1.48ZM197.91,379.33l10.45-31.34c.35-.99.69-1.99,1.01-3.02.32-1.02.62-1.99.9-2.91h3.07c.28.92.6,1.89.95,2.91.35,1.02.67,2.03.95,3.02l10.45,31.34h-27.77Z"/>
        <polygon class="cls-1" points="270.08 336.56 245.83 336.56 245.83 342.7 270.08 342.7 270.08 409.61 277.07 409.61 277.07 342.7 301.42 342.7 301.42 336.56 277.07 336.56 270.08 336.56"/>
        <path class="cls-1" d="M332.65,403.78c-2.33,0-4.11-.65-5.35-1.96-1.24-1.31-1.85-3.19-1.85-5.66v-22.55h32.71v-5.61h-32.71v-18c0-2.47.62-4.34,1.85-5.61,1.23-1.27,3.02-1.91,5.35-1.91h29.75l.32-5.4c-3.32-.21-6.72-.37-10.22-.48-3.49-.11-7.01-.16-10.53-.16h-10.48c-3.88,0-7.01,1.1-9.37,3.28-2.37,2.19-3.55,5.12-3.55,8.79v49.12c0,3.6,1.18,6.51,3.55,8.73,2.36,2.22,5.49,3.34,9.37,3.34,3.46,0,6.95-.02,10.48-.05,3.53-.04,7.04-.09,10.53-.16,3.49-.07,6.9-.21,10.22-.42l-.32-5.29h-29.75Z"/>
      </g>
      <path class="cls-1" d="M343.3,285.85h-55.97c-10.37,0-20.46-4.26-27.7-11.68l-67.34-68.87-72.09,72.59c-4.13,4.16-9.64,6.49-15.5,6.57l-89.99,1.15c-5.05.06-9.55-2.89-11.5-7.54-1.95-4.64-.9-9.94,2.67-13.49l117.72-117.1c1.22-1.22,1.9-2.84,1.9-4.56,0-1.73-.67-3.35-1.9-4.56L5.87,21.26c-3.57-3.55-4.62-8.85-2.67-13.49C5.15,3.13,9.66.15,14.71.23l89.99,1.15c5.86.08,11.37,2.41,15.5,6.57l72.09,72.59L259.63,11.67c7.24-7.42,17.33-11.67,27.7-11.67h55.97c9.88,0,18.32,5.69,22.02,14.85,3.71,9.16,1.6,19.12-5.51,25.99l-61.28,59.28c-12.7,12.29-29.43,19-47.11,18.88l-7.45-.05c-17.97-.11-34.85-7.2-47.51-19.95L113.07,15.03c-2.27-2.28-5.29-3.56-8.5-3.6l-89.99-1.15c-1.31-.05-1.9.86-2.12,1.39-.22.53-.45,1.55.49,2.48l117.72,117.1c3.13,3.12,4.86,7.26,4.86,11.68,0,4.42-1.72,8.56-4.86,11.68L12.95,271.71c-.94.94-.71,1.96-.49,2.48.22.53.79,1.43,2.12,1.39l89.99-1.15c3.22-.04,6.24-1.32,8.5-3.6l83.39-83.97c12.67-12.75,29.54-19.84,47.51-19.95l7.45-.05c.14,0,.29,0,.43,0,17.52,0,34.08,6.7,46.68,18.89l61.28,59.28c7.1,6.87,9.21,16.83,5.51,25.99-3.7,9.16-12.14,14.85-22.02,14.85ZM199.37,198.18l67.44,68.98c5.37,5.5,12.85,8.65,20.52,8.65h55.97c6.82,0,11.04-4.43,12.72-8.57,1.68-4.15,1.72-10.26-3.18-15.01l-61.28-59.28c-10.8-10.45-25.06-16.16-40.07-16.06l-7.45.05c-15.3.1-29.67,6.13-40.45,16.99l-4.22,4.25ZM199.36,87.66l4.23,4.26c10.78,10.86,25.15,16.89,40.45,16.99l7.45.05c.12,0,.25,0,.37,0,14.9,0,28.98-5.7,39.7-16.06l61.28-59.28c4.9-4.74,4.86-10.86,3.18-15.01-1.68-4.15-5.9-8.57-12.72-8.57h-55.97c-7.68,0-15.16,3.15-20.52,8.65l-67.45,68.98Z"/>
    </g>
  </g>
</svg>